# Blender 4.1.1
# www.blender.org
mtllib scene2.mtl
o Cube
v 128.000000 255.999985 -128.000015
v 128.000000 -0.000010 -128.000000
v 128.000000 256.000000 127.999977
v 128.000000 0.000010 128.000000
v -128.000000 255.999985 -128.000015
v -128.000000 -0.000010 -128.000000
v -128.000000 256.000000 127.999977
v -128.000000 0.000010 128.000000
v 128.000000 0.000005 64.000000
v 512.000000 288.000000 127.999977
v 256.000000 32.000004 63.999996
v 256.000000 32.000011 128.000000
v 256.000000 160.000000 63.999989
v 128.000000 256.000000 -64.000023
v 256.000000 288.000000 -128.000015
v 512.000000 31.999990 -128.000000
v 128.000000 256.000000 -64.000023
v 128.000000 0.000005 64.000000
v 128.000000 -0.000005 -64.000000
v 128.000000 256.000000 63.999981
v 512.000000 288.000000 -128.000015
v 256.000000 288.000000 127.999977
v 128.000000 255.999985 -128.000015
v 128.000000 127.999992 -64.000008
v 128.000000 128.000000 63.999989
v 512.000000 32.000011 128.000000
v 256.000000 160.000000 -64.000015
v 256.000000 31.999994 -64.000000
v 256.000000 31.999990 -128.000000
v 128.000000 -0.000010 -128.000000
v 256.000000 288.000000 63.999977
v 128.000000 256.000000 127.999977
v 128.000000 0.000010 128.000000
v 256.000000 288.000000 -64.000023
v 256.000000 160.000000 63.999989
v 256.000000 160.000000 -64.000015
v 256.000000 31.999990 -128.000000
v 256.000000 288.000000 -128.000015
v 256.000000 32.000011 128.000000
v 256.000000 288.000000 127.999977
v 256.000000 288.000000 63.999977
v 256.000000 31.999994 -64.000000
v 256.000000 32.000004 63.999996
v 256.000000 288.000000 -64.000023
v 128.000000 -0.000005 -64.000000
v 128.000000 256.000000 63.999981
vn -0.0000 -1.0000 -0.0000
vn -0.0000 -0.0000 -1.0000
vn 1.0000 -0.0000 -0.0000
vn -0.0000 1.0000 -0.0000
vn -0.0000 -0.0000 1.0000
vn -1.0000 -0.0000 -0.0000
vn 0.2425 -0.9701 -0.0000
vn -0.2425 0.9701 -0.0000
vt 0.290166 0.962403
vt 0.290166 0.713210
vt 0.040973 0.713210
vt 0.040973 0.962403
vt 0.278221 0.071372
vt 0.075289 0.071372
vt 0.075289 0.274304
vt 0.278221 0.274304
vt 0.724090 0.020524
vt 0.973283 0.020524
vt 0.973283 0.269716
vt 0.724090 0.269716
vt 0.808040 0.904524
vt 0.808040 0.779927
vt 0.932636 0.811076
vt 0.932636 0.935673
vt 0.306373 0.364323
vt 0.306373 0.613515
vt 0.244075 0.613515
vt 0.244075 0.364323
vt 0.414762 0.713210
vt 0.414762 0.962403
vt 0.663954 0.962403
vt 0.663954 0.713210
vt 0.582619 0.096739
vt 0.379687 0.096739
vt 0.379687 0.299671
vt 0.582619 0.299671
vt 0.968931 0.408527
vt 0.719738 0.408527
vt 0.719738 0.657720
vt 0.968931 0.657720
vt 0.414302 0.612025
vt 0.414302 0.487429
vt 0.538898 0.487429
vt 0.538898 0.612025
vt 0.119479 0.364323
vt 0.119479 0.613515
vt 0.057181 0.613515
vt 0.057181 0.364323
vt 0.119479 0.488919
vt 0.244075 0.488919
vt 0.290166 0.775508
vt 0.290166 0.900105
vt 0.414762 0.900105
vt 0.414762 0.775508
vt 0.414302 0.362833
vt 0.352004 0.612025
vt 0.352004 0.362833
vt 0.601197 0.362833
vt 0.601197 0.612025
vt 0.538898 0.362833
s 0
usemtl Stone1
f 1/1/1 3/2/1 7/3/1 5/4/1
f 4/5/2 8/6/2 7/7/2 3/8/2
f 8/9/3 6/10/3 5/11/3 7/12/3
f 6/4/4 8/3/4 4/2/4 2/1/4
f 24/13/5 19/14/5 28/15/5 27/16/5
f 6/6/5 2/5/5 1/8/5 5/7/5
f 33/17/6 32/18/6 46/19/6 9/20/6
f 18/14/2 25/13/2 13/16/2 11/15/2
f 22/21/1 15/22/1 21/23/1 10/24/1
f 26/25/2 12/26/2 22/27/2 10/28/2
f 16/29/6 26/30/6 10/31/6 21/32/6
f 26/24/4 16/23/4 29/22/4 12/21/4
f 31/33/3 35/34/3 36/35/3 34/36/3
f 45/37/6 14/38/6 23/39/6 30/40/6
f 17/38/6 24/41/6 25/42/6 20/19/6
f 29/26/5 16/25/5 21/28/5 15/27/5
f 25/43/7 24/44/7 27/45/7 13/46/7
f 19/44/8 18/43/8 11/46/8 28/45/8
f 43/47/3 41/33/3 40/48/3 39/49/3
f 37/50/3 38/51/3 44/36/3 42/52/3
