# Blender 4.1.1
# www.blender.org
mtllib scene3.mtl
o Cube.001
v 64.000000 128.000000 -64.000000
v 64.000000 0.000000 -64.000000
v 64.000000 128.000000 64.000000
v 64.000000 0.000000 64.000000
v -64.000000 128.000000 -64.000000
v -64.000000 0.000000 -64.000000
v -64.000000 128.000000 64.000000
v -64.000000 0.000000 64.000000
v 64.000000 32.000000 -192.000000
v -64.000000 32.000000 -192.000000
v 64.000000 160.000000 -192.000000
v -64.000000 160.000000 -192.000000
v 64.000000 32.000000 -320.000000
v -64.000000 32.000000 -320.000000
v 64.000000 160.000000 -320.000000
v -64.000000 160.000000 -320.000000
v -192.000000 192.000000 -192.000000
v -192.000000 64.000000 -192.000000
v -192.000000 192.000000 -320.000000
v -192.000000 64.000000 -320.000000
v -320.000000 192.000000 -192.000000
v -320.000000 64.000000 -192.000000
v -320.000000 192.000000 -320.000000
v -320.000000 64.000000 -320.000000
v -192.000000 192.000000 -448.000000
v -192.000000 64.000000 -448.000000
v -320.000000 192.000000 -448.000000
v -320.000000 64.000000 -448.000000
vn -0.0000 -0.9701 -0.2425
vn -1.0000 -0.0000 -0.0000
vn -0.0000 -0.0000 -1.0000
vn -0.0000 -1.0000 -0.0000
vn -0.0000 -0.0000 1.0000
vn 1.0000 -0.0000 -0.0000
vn -0.0000 1.0000 -0.0000
vn -0.0000 0.9701 0.2425
vn -0.2425 -0.9701 -0.0000
vn 0.2425 0.9701 -0.0000
vt 0.000000 0.023438
vt 1.000000 0.023438
vt 1.000000 0.976562
vt 0.000000 0.976562
vt 0.000000 0.000000
vt 0.976562 0.000000
vt 0.976562 1.000000
vt 0.000000 1.000000
vt 1.000000 0.000000
vt 1.000000 1.000000
vt 0.023438 0.000000
vt 0.023438 1.000000
vt 0.023438 0.976562
vt 0.976562 0.976562
s 0
usemtl Stone2
f 12/1/1 11/2/1 1/3/1 5/4/1
f 3/5/2 1/6/2 2/7/2 4/8/2
f 7/5/3 3/9/3 4/10/3 8/8/3
f 7/5/4 5/6/4 1/7/4 3/8/4
f 11/1/2 9/2/2 2/3/2 1/4/2
f 15/5/2 13/9/2 9/3/2 11/4/2
f 15/5/5 16/6/5 14/7/5 13/8/5
f 5/11/6 7/9/6 8/10/6 6/12/6
f 4/5/7 2/6/7 6/7/7 8/8/7
f 16/11/4 15/9/4 11/3/4 12/13/4
f 19/5/5 20/9/5 14/3/5 16/4/5
f 26/5/7 28/9/7 24/3/7 20/4/7
f 9/1/8 10/2/8 6/3/8 2/4/8
f 17/1/9 19/2/9 16/3/9 12/4/9
f 27/5/4 25/9/4 19/3/4 23/4/4
f 21/5/4 23/6/4 19/14/4 17/4/4
f 10/5/6 12/9/6 5/3/6 6/4/6
f 13/5/7 14/6/7 10/14/7 9/4/7
f 22/5/3 21/9/3 17/3/3 18/4/3
f 24/11/7 22/9/7 18/3/7 20/13/7
f 20/1/10 18/2/10 10/3/10 14/4/10
f 18/1/3 17/2/3 12/10/3 10/8/3
f 28/5/6 27/9/6 23/3/6 24/4/6
f 24/1/6 23/2/6 21/10/6 22/8/6
f 25/5/2 26/9/2 20/10/2 19/8/2
f 27/5/5 28/9/5 26/10/5 25/8/5
