# Blender 4.1.1
# www.blender.org
mtllib scene2.mtl
o Cube.003
v 128.000000 256.000000 -128.000000
v 128.000000 0.000000 -128.000000
v 128.000000 256.000000 128.000000
v 128.000000 0.000000 128.000000
v -128.000000 256.000000 -128.000000
v -128.000000 0.000000 -128.000000
v -128.000000 256.000000 128.000000
v -128.000000 33.208145 128.000000
v 128.000000 256.000000 0.000000
v 128.000000 128.000000 -128.000000
v 128.000000 0.000000 0.000000
v 128.000000 128.000000 128.000000
v 0.000000 256.000000 128.000000
v 0.000000 33.208145 128.000000
v -128.000000 128.000000 128.000000
v -128.000000 256.000000 0.000000
v -128.000000 33.208145 0.000000
v -128.000000 128.000000 -128.000000
v 0.000000 256.000000 -128.000000
v 0.000000 0.000000 -128.000000
v 0.000000 33.208145 0.000000
v 0.000000 256.000000 0.000000
v 0.000000 128.000000 -128.000000
v -128.000000 128.000000 0.000000
v 0.000000 128.000000 128.000000
v 128.000000 128.000000 0.000000
vn -1.0000 -0.0000 -0.0000
vn -0.0000 -0.0000 -1.0000
vn 1.0000 -0.0000 -0.0000
vn -0.0000 -0.0000 1.0000
vn -0.0000 -1.0000 -0.0000
vn 0.2511 0.9680 -0.0000
vn -0.0000 0.9680 -0.2511
vn -0.0000 1.0000 -0.0000
vt 0.046875 0.046875
vt 1.000000 0.046875
vt 1.000000 1.000000
vt 0.046875 1.000000
vt 0.000000 0.046875
vt 0.953125 0.046875
vt 0.953125 1.000000
vt 0.000000 1.000000
vt 0.000000 0.000000
vt 0.953125 0.000000
vt 0.953125 0.953125
vt 0.000000 0.953125
vt 0.046875 0.000000
vt 1.000000 0.000000
vt 1.000000 0.953125
vt 0.046875 0.953125
s 0
usemtl Stone3_Skull
f 8/9/8 14/10/8 21/11/8 17/12/8
usemtl Stone3
f 26/1/1 11/2/1 4/3/1 12/4/1
f 25/1/2 14/2/2 8/3/2 15/4/2
f 24/1/3 17/2/3 6/3/3 18/4/3
f 23/1/4 20/2/4 2/3/4 10/4/4
f 22/1/5 16/2/5 5/3/5 19/4/5
f 21/1/6 11/2/6 2/3/6
f 17/5/7 21/6/7 20/7/7 6/8/7
f 14/13/6 4/14/6 11/15/6 21/16/6
f 9/5/5 22/6/5 19/7/5 1/8/5
f 3/9/5 13/10/5 22/11/5 9/12/5
f 13/13/5 7/14/5 16/15/5 22/16/5
f 19/5/4 23/6/4 10/7/4 1/8/4
f 5/9/4 18/10/4 23/11/4 19/12/4
f 18/13/4 6/14/4 20/15/4 23/16/4
f 16/5/3 24/6/3 18/7/3 5/8/3
f 7/9/3 15/10/3 24/11/3 16/12/3
f 15/13/3 8/14/3 17/15/3 24/16/3
f 13/5/2 25/6/2 15/7/2 7/8/2
f 3/9/2 12/10/2 25/11/2 13/12/2
f 12/13/2 4/14/2 14/15/2 25/16/2
f 9/5/1 26/6/1 12/7/1 3/8/1
f 1/9/1 10/10/1 26/11/1 9/12/1
f 10/13/1 2/14/1 11/15/1 26/16/1
f 20/4/7 21/1/7 2/3/7
