# Blender 4.1.1
# www.blender.org
mtllib floor.mtl
o Plane
v -64.000000 0.000000 64.000000
v 64.000000 0.000000 64.000000
v -64.000000 0.000000 -64.000000
v 64.000000 0.000000 -64.000000
v 55.067699 2.086222 11.086292
v 57.871483 -2.321719 8.647282
v 55.067699 2.086222 57.008293
v 57.871483 -2.321719 59.847294
v 6.278355 2.086222 4.125967
v 3.474572 -2.321719 0.886979
v 6.278355 2.086222 57.008293
v 3.474572 -2.321719 59.847294
v -64.000000 0.000000 0.000000
v 0.000000 0.000000 64.000000
v 64.000000 0.000000 0.000000
v 0.000000 0.000000 -64.000000
v 0.000000 0.000000 0.000000
v -64.000000 0.000000 32.000000
v 32.000000 0.000000 64.000000
v 64.000000 0.000000 -32.000000
v -32.000000 0.000000 -64.000000
v -64.000000 0.000000 -32.000000
v -32.000000 0.000000 64.000000
v 64.000000 0.000000 32.000000
v 32.000000 0.000000 -64.000000
v 0.000000 0.000000 -32.000000
v 0.000000 0.000000 32.000000
v -32.000000 0.000000 0.000000
v 32.000000 0.000000 0.000000
v 32.000000 0.000000 32.000000
v -32.000000 0.000000 32.000000
v -32.000000 0.000000 -32.000000
v 32.000000 0.000000 -32.000000
v -2.234215 2.166285 -50.718727
v 1.523026 -2.321719 -58.096848
v -6.916967 2.166285 49.279533
v -3.839962 -2.321719 56.427509
v -51.622849 2.166285 -47.549988
v -55.039974 -2.321719 -54.467812
v -51.622849 2.166285 49.279533
v -55.039974 -2.321719 56.427509
v 54.936119 2.173150 -43.180389
v 57.976917 -2.321719 -45.122299
v 46.481354 2.173150 -10.556179
v 48.343563 -2.321719 -7.950280
v 22.311905 2.173150 -51.635155
v 20.804897 -2.321719 -54.755653
v 8.761007 2.173150 -11.627834
v 5.365007 -2.321719 -9.171325
v 51.424179 3.571940 53.364769
v 9.921877 3.571940 53.364769
v 51.424179 3.571940 14.729816
v 9.921877 3.571940 7.769491
v 44.152912 4.645288 -14.513650
v 12.718481 4.645288 -13.956274
v 50.978645 4.645288 -40.851948
v 24.640345 4.645288 -47.677677
v -9.961317 4.444121 43.190834
v -48.578495 4.444121 43.190834
v -5.278563 4.444121 -44.630028
v -48.578495 4.444121 -41.461296
vn -0.0000 1.0000 -0.0000
vn -0.0000 -1.0000 -0.0000
vn -0.3776 0.9260 -0.0000
vn -0.8438 0.5367 -0.0000
vn 0.1191 0.5376 -0.8347
vn 0.8438 0.5367 -0.0000
vn -0.0000 0.5415 0.8407
vn -0.5991 0.8007 -0.0000
vn -0.7956 0.6058 -0.0000
vn -0.0341 0.8460 -0.5320
vn 0.7955 0.6048 0.0373
vn -0.0000 0.8469 0.5317
vn 0.1520 0.7956 -0.5864
vn -0.8333 0.4753 -0.2822
vn 0.2163 0.5068 -0.8345
vn 0.8495 0.4796 0.2201
vn -0.0247 0.4937 0.8693
vn 0.3776 0.9260 -0.0000
vn -0.0000 0.9260 0.3776
vn 0.0581 0.9244 -0.3769
vn -0.5737 0.7947 -0.1982
vn 0.5864 0.7956 0.1520
vn -0.0046 0.7866 0.6175
vn 0.5988 0.8003 0.0299
vn -0.0000 0.9366 0.3504
vn -0.0240 0.9363 -0.3503
vt 0.455231 0.922516
vt 0.452069 0.922516
vt 0.452069 0.919355
vt 0.455231 0.919355
vt 0.424778 0.959149
vt 0.430797 0.959149
vt 0.430797 0.965169
vt 0.424778 0.965169
vt 0.294796 0.937486
vt 0.300815 0.937486
vt 0.300815 0.943505
vt 0.294796 0.943505
vt 0.461554 0.922516
vt 0.458392 0.922516
vt 0.458392 0.919355
vt 0.461554 0.919355
vt 0.461554 0.928839
vt 0.458392 0.928839
vt 0.458392 0.925678
vt 0.461554 0.925678
vt 0.455231 0.928839
vt 0.452069 0.928839
vt 0.452069 0.925678
vt 0.455231 0.925678
vt 0.458392 0.932001
vt 0.455231 0.932001
vt 0.452069 0.932001
vt 0.464715 0.928839
vt 0.464715 0.925678
vt 0.464715 0.932001
vt 0.461554 0.932001
vt 0.464715 0.922516
vt 0.464715 0.919355
vt 0.157592 0.951928
vt 0.163612 0.951928
vt 0.163612 0.957948
vt 0.157592 0.957948
s 0
usemtl Colors1
f 33/1/1 20/2/1 4/3/1 25/4/1
f 10/5/2 6/6/2 8/7/2 12/8/2
f 9/9/3 11/10/3 51/11/3 53/12/3
f 12/5/4 11/6/4 9/7/4 10/8/4
f 10/5/5 9/6/5 5/7/5 6/8/5
f 6/5/6 5/6/6 7/7/6 8/8/6
f 8/5/7 7/6/7 11/7/7 12/8/7
f 32/13/1 26/14/1 16/15/1 21/16/1
f 31/17/1 27/18/1 17/19/1 28/20/1
f 30/21/1 24/22/1 15/23/1 29/24/1
f 27/18/1 30/21/1 29/24/1 17/19/1
f 14/25/1 19/26/1 30/21/1 27/18/1
f 19/26/1 2/27/1 24/22/1 30/21/1
f 18/28/1 31/17/1 28/20/1 13/29/1
f 1/30/1 23/31/1 31/17/1 18/28/1
f 23/31/1 14/25/1 27/18/1 31/17/1
f 22/32/1 32/13/1 21/16/1 3/33/1
f 13/29/1 28/20/1 32/13/1 22/32/1
f 28/20/1 17/19/1 26/14/1 32/13/1
f 26/14/1 33/1/1 25/4/1 16/15/1
f 17/19/1 29/24/1 33/1/1 26/14/1
f 29/24/1 15/23/1 20/2/1 33/1/1
f 39/5/2 35/6/2 37/7/2 41/8/2
f 38/9/8 40/10/8 59/11/8 61/12/8
f 41/5/9 40/6/9 38/7/9 39/8/9
f 39/5/10 38/6/10 34/7/10 35/8/10
f 35/5/11 34/6/11 36/7/11 37/8/11
f 37/5/12 36/6/12 40/7/12 41/8/12
f 47/5/2 43/6/2 45/7/2 49/8/2
f 42/9/13 46/10/13 57/11/13 56/12/13
f 49/5/14 48/6/14 46/7/14 47/8/14
f 47/5/15 46/6/15 42/7/15 43/8/15
f 43/5/16 42/6/16 44/7/16 45/8/16
f 45/5/17 44/6/17 48/7/17 49/8/17
f 52/34/1 53/35/1 51/36/1 50/37/1
f 7/9/18 5/10/18 52/11/18 50/12/18
f 11/9/19 7/10/19 50/11/19 51/12/19
f 5/9/20 9/10/20 53/11/20 52/12/20
f 56/34/1 57/35/1 55/36/1 54/37/1
f 46/9/21 48/10/21 55/11/21 57/12/21
f 44/9/22 42/10/22 56/11/22 54/12/22
f 48/9/23 44/10/23 54/11/23 55/12/23
f 60/34/1 61/35/1 59/36/1 58/37/1
f 36/9/24 34/10/24 60/11/24 58/12/24
f 40/9/25 36/10/25 58/11/25 59/12/25
f 34/9/26 38/10/26 61/11/26 60/12/26
